<svg xmlns="http://www.w3.org/2000/svg" version="1.1" xmlns:xlink="http://www.w3.org/1999/xlink" viewBox="0 0 200 200"><rect width="200" height="200" fill="url('#gradient')"></rect><defs><linearGradient id="gradient" gradientTransform="rotate(45 0.5 0.5)"><stop offset="0%" stop-color="#0ab5fa"></stop><stop offset="100%" stop-color="#0a4e91"></stop></linearGradient></defs><g><g fill="#c8d8e8" transform="matrix(2.692144918243027,0,0,2.692144918243027,15.113465835735482,114.4445680365726)" stroke="#0c325a" stroke-width="0.75"><path d="M5.75 0L1.07 0L1.07-14.22L5.65-14.22Q7.54-14.22 9.04-13.36Q10.55-12.51 11.39-10.95Q12.24-9.39 12.25-7.46L12.25-7.46L12.25-6.81Q12.25-4.85 11.42-3.31Q10.60-1.76 9.10-0.88Q7.60-0.01 5.75 0L5.75 0ZM5.65-11.57L4.50-11.57L4.50-2.64L5.69-2.64Q7.17-2.64 7.96-3.69Q8.75-4.74 8.75-6.81L8.75-6.81L8.75-7.42Q8.75-9.48 7.96-10.53Q7.17-11.57 5.65-11.57L5.65-11.57ZM17.32-10.57L17.32 0L14.02 0L14.02-10.57L17.32-10.57ZM13.83-13.29L13.83-13.29Q13.83-13.99 14.34-14.44Q14.84-14.89 15.65-14.89Q16.46-14.89 16.97-14.44Q17.48-13.99 17.48-13.29Q17.48-12.59 16.97-12.14Q16.46-11.69 15.65-11.69Q14.84-11.69 14.34-12.14Q13.83-12.59 13.83-13.29ZM18.96-5.24L18.96-5.36Q18.96-6.96 19.49-8.19Q20.02-9.42 21.01-10.09Q21.99-10.76 23.30-10.76L23.30-10.76Q24.95-10.76 25.88-9.65L25.88-9.65L26.00-10.57L28.98-10.57L28.98-0.40Q28.98 1.00 28.33 2.03Q27.69 3.06 26.46 3.61Q25.22 4.16 23.60 4.16L23.60 4.16Q22.44 4.16 21.35 3.72Q20.26 3.28 19.69 2.58L19.69 2.58L21.06 0.64Q21.98 1.73 23.49 1.73L23.49 1.73Q25.67 1.73 25.67-0.52L25.67-0.52L25.67-0.85Q24.73 0.20 23.28 0.20L23.28 0.20Q21.35 0.20 20.16-1.28Q18.96-2.76 18.96-5.24L18.96-5.24ZM22.27-5.16L22.27-5.16Q22.27-3.86 22.75-3.10Q23.24-2.34 24.12-2.34L24.12-2.34Q25.19-2.34 25.67-3.06L25.67-3.06L25.67-7.50Q25.20-8.22 24.14-8.22L24.14-8.22Q23.26-8.22 22.76-7.44Q22.27-6.65 22.27-5.16ZM34.33-10.57L34.33 0L31.03 0L31.03-10.57L34.33-10.57ZM30.83-13.29L30.83-13.29Q30.83-13.99 31.34-14.44Q31.85-14.89 32.66-14.89Q33.47-14.89 33.97-14.44Q34.48-13.99 34.48-13.29Q34.48-12.59 33.97-12.14Q33.47-11.69 32.66-11.69Q31.85-11.69 31.34-12.14Q30.83-12.59 30.83-13.29ZM42.28 0L36.50 0L36.50-14.22L41.61-14.22Q44.36-14.22 45.79-13.21Q47.22-12.21 47.22-10.29L47.22-10.29Q47.22-9.19 46.71-8.41Q46.20-7.63 45.21-7.26L45.21-7.26Q46.33-6.96 46.92-6.16Q47.52-5.36 47.52-4.21L47.52-4.21Q47.52-2.12 46.20-1.07Q44.87-0.02 42.28 0L42.28 0ZM42.33-6.04L39.93-6.04L39.93-2.64L42.18-2.64Q43.11-2.64 43.60-3.06Q44.10-3.49 44.10-4.26L44.10-4.26Q44.10-6.04 42.33-6.04L42.33-6.04ZM39.93-11.57L39.93-8.29L41.72-8.29Q42.84-8.30 43.32-8.70Q43.80-9.10 43.80-9.88L43.80-9.88Q43.80-10.78 43.28-11.18Q42.76-11.57 41.61-11.57L41.61-11.57L39.93-11.57ZM58.31 0L57.48-2.66L52.78-2.66L51.96 0L48.30 0L53.52-14.22L56.74-14.22L61.99 0L58.31 0ZM55.13-10.23L53.60-5.30L56.66-5.30L55.13-10.23Z"></path></g></g></svg>